# xmcd
#
# Track frame offsets:
#	150
#	32578
#	51408
#	90241
#	113314
#	137966
#	166553
#	203629
#	238232
#	263819
#
# Disc length: 3908 seconds
#
# Revision: 1
# Processed by: cddbd v1.5.2PL0 Copyright (c) Steve Scherf et al.
# Submitted via: audiograbber 1.83.01
#
DISCID=780f420a
DTITLE=Liliane Susewind - Mit Elefanten spricht man nicht CD1
DYEAR=2008
DGENRE=Hörbuch
TTITLE0=Die neue Schule 1
TTITLE1=Die neue Schule 2
TTITLE2=Jesahja
TTITLE3=Familienrat
TTITLE4=Der zweite Schultag
TTITLE5=Der Geheimnistausch 1
TTITLE6=Der Geheimnistausch 2
TTITLE7=Herr von Bonsai und Frau von Schmidt
TTITLE8=Im Zoo 1
TTITLE9=Im Zoo 2
EXTD=
EXTT0=
EXTT1=
EXTT2=
EXTT3=
EXTT4=
EXTT5=
EXTT6=
EXTT7=
EXTT8=
EXTT9=
PLAYORDER=
